<svg xmlns="http://www.w3.org/2000/svg" viewBox="0 0 64 64" width="64" height="64">
  <defs>
    <radialGradient id="bgGlow" cx="50%" cy="50%" r="50%">
      <stop offset="0%" style="stop-color:#0a0a0a;stop-opacity:1" />
      <stop offset="100%" style="stop-color:#000000;stop-opacity:1" />
    </radialGradient>
    <linearGradient id="dragonGlow" x1="0%" y1="0%" x2="100%" y2="100%">
      <stop offset="0%" style="stop-color:#00ffff;stop-opacity:0.9" />
      <stop offset="50%" style="stop-color:#00ff41;stop-opacity:0.9" />
      <stop offset="100%" style="stop-color:#00ffff;stop-opacity:0.9" />
    </linearGradient>
    <filter id="glow">
      <feGaussianBlur stdDeviation="2" result="coloredBlur"/>
      <feMerge> 
        <feMergeNode in="coloredBlur"/>
        <feMergeNode in="SourceGraphic"/>
      </feMerge>
    </filter>
  </defs>
  
  <!-- Background -->
  <circle cx="32" cy="32" r="30" fill="url(#bgGlow)" stroke="#00ffff" stroke-width="2"/>
  
  <!-- Kali Dragon inspired design -->
  <g transform="translate(32,32)" filter="url(#glow)">
    <!-- Dragon silhouette -->
    <path d="M-15,-8 Q-18,-15 -10,-18 Q-5,-20 0,-18 Q5,-20 10,-18 Q18,-15 15,-8 
             L15,-2 Q15,5 12,8 L8,12 Q5,15 0,15 Q-5,15 -8,12 L-12,8 Q-15,5 -15,-2 Z" 
          fill="none" stroke="url(#dragonGlow)" stroke-width="2" opacity="0.8"/>
    
    <!-- Eyes with glow -->
    <circle cx="-6" cy="-8" r="2" fill="#00ff41">
      <animate attributeName="opacity" values="0.5;1;0.5" dur="3s" repeatCount="indefinite"/>
    </circle>
    <circle cx="6" cy="-8" r="2" fill="#00ff41">
      <animate attributeName="opacity" values="0.5;1;0.5" dur="3s" repeatCount="indefinite"/>
    </circle>
    
    <!-- Horns/spikes -->
    <path d="M-8,-18 L-6,-12" stroke="#00ffff" stroke-width="2"/>
    <path d="M8,-18 L6,-12" stroke="#00ffff" stroke-width="2"/>
    
    <!-- Terminal elements -->
    <rect x="-2" y="2" width="4" height="6" fill="none" stroke="#00ffff" stroke-width="1"/>
    <text x="-1" y="6" font-family="monospace" font-size="4" fill="#00ff41">$</text>
    
    <!-- Glitch effect line -->
    <rect x="-8" y="0" width="16" height="1" fill="#bf00ff" opacity="0.6">
      <animate attributeName="opacity" values="0;0.8;0" dur="2s" repeatCount="indefinite"/>
    </rect>
  </g>
  
  <!-- Circuit pattern -->
  <g opacity="0.3">
    <line x1="8" y1="8" x2="16" y2="8" stroke="#00ffff" stroke-width="0.5"/>
    <line x1="48" y1="56" x2="56" y2="56" stroke="#00ffff" stroke-width="0.5"/>
    <circle cx="12" cy="12" r="1" fill="#00ff41"/>
    <circle cx="52" cy="52" r="1" fill="#00ff41"/>
  </g>
</svg>
